<mxfile host="Electron" agent="Mozilla/5.0 (Windows NT 10.0; Win64; x64) AppleWebKit/537.36 (KHTML, like Gecko) draw.io/27.0.5 Chrome/134.0.6998.205 Electron/35.3.0 Safari/537.36" version="27.0.5">
  <diagram name="Page-1" id="30EZHxHrSLHiZ1H_oWsx">
    <mxGraphModel dx="1426" dy="961" grid="1" gridSize="10" guides="1" tooltips="1" connect="1" arrows="1" fold="1" page="1" pageScale="1" pageWidth="827" pageHeight="1169" math="0" shadow="0">
      <root>
        <mxCell id="0" />
        <mxCell id="1" parent="0" />
        <mxCell id="9xGHVuF1wRY1X2At3EIH-84" style="edgeStyle=orthogonalEdgeStyle;rounded=0;orthogonalLoop=1;jettySize=auto;html=1;entryX=0.25;entryY=0;entryDx=0;entryDy=0;fillColor=#60a917;strokeColor=#2D7600;exitX=1;exitY=0.5;exitDx=0;exitDy=0;" parent="1" source="9xGHVuF1wRY1X2At3EIH-22" target="9xGHVuF1wRY1X2At3EIH-3" edge="1">
          <mxGeometry relative="1" as="geometry" />
        </mxCell>
        <mxCell id="9xGHVuF1wRY1X2At3EIH-85" style="edgeStyle=orthogonalEdgeStyle;rounded=0;orthogonalLoop=1;jettySize=auto;html=1;fillColor=#a20025;strokeColor=#6F0000;entryX=0;entryY=0.5;entryDx=0;entryDy=0;exitX=0.151;exitY=0;exitDx=0;exitDy=0;exitPerimeter=0;" parent="1" source="9xGHVuF1wRY1X2At3EIH-3" edge="1">
          <mxGeometry relative="1" as="geometry">
            <mxPoint x="40" y="660" as="targetPoint" />
            <Array as="points">
              <mxPoint x="220" y="424" />
              <mxPoint x="220" y="424" />
              <mxPoint x="220" y="410" />
              <mxPoint x="20" y="410" />
              <mxPoint x="20" y="660" />
            </Array>
            <mxPoint x="210" y="400" as="sourcePoint" />
          </mxGeometry>
        </mxCell>
        <mxCell id="9xGHVuF1wRY1X2At3EIH-2" value="3V3 VOLTAGE&lt;div&gt;REGULATOR&lt;/div&gt;" style="rounded=1;whiteSpace=wrap;html=1;" parent="1" vertex="1">
          <mxGeometry x="40" y="330" width="120" height="60" as="geometry" />
        </mxCell>
        <mxCell id="9xGHVuF1wRY1X2At3EIH-7" style="edgeStyle=orthogonalEdgeStyle;rounded=0;orthogonalLoop=1;jettySize=auto;html=1;exitX=0;exitY=0.5;exitDx=0;exitDy=0;entryX=0;entryY=0.5;entryDx=0;entryDy=0;" parent="1" source="9xGHVuF1wRY1X2At3EIH-3" target="9xGHVuF1wRY1X2At3EIH-3" edge="1">
          <mxGeometry relative="1" as="geometry">
            <mxPoint x="20" y="529.8518518518517" as="targetPoint" />
          </mxGeometry>
        </mxCell>
        <mxCell id="9xGHVuF1wRY1X2At3EIH-3" value="MCU&lt;div&gt;ESP32&lt;br&gt;MODULE&lt;/div&gt;" style="rounded=1;whiteSpace=wrap;html=1;" parent="1" vertex="1">
          <mxGeometry x="190" y="425" width="200" height="110" as="geometry" />
        </mxCell>
        <mxCell id="9xGHVuF1wRY1X2At3EIH-29" style="edgeStyle=orthogonalEdgeStyle;rounded=0;orthogonalLoop=1;jettySize=auto;html=1;exitX=1;exitY=0.5;exitDx=0;exitDy=0;entryX=0;entryY=0.5;entryDx=0;entryDy=0;" parent="1" source="9xGHVuF1wRY1X2At3EIH-18" target="9xGHVuF1wRY1X2At3EIH-19" edge="1">
          <mxGeometry relative="1" as="geometry" />
        </mxCell>
        <mxCell id="9xGHVuF1wRY1X2At3EIH-18" value="DISPLAY&lt;div&gt;DRIVER&lt;/div&gt;" style="rounded=1;whiteSpace=wrap;html=1;" parent="1" vertex="1">
          <mxGeometry x="470" y="450" width="120" height="60" as="geometry" />
        </mxCell>
        <mxCell id="9xGHVuF1wRY1X2At3EIH-19" value="NEXIE&amp;nbsp;&lt;div&gt;INDICATORS&lt;/div&gt;" style="rounded=1;whiteSpace=wrap;html=1;" parent="1" vertex="1">
          <mxGeometry x="630" y="450" width="120" height="60" as="geometry" />
        </mxCell>
        <mxCell id="9xGHVuF1wRY1X2At3EIH-20" value="ADDR&lt;div&gt;LEDS&lt;/div&gt;" style="rounded=1;whiteSpace=wrap;html=1;" parent="1" vertex="1">
          <mxGeometry x="630" y="540" width="120" height="60" as="geometry" />
        </mxCell>
        <mxCell id="9xGHVuF1wRY1X2At3EIH-23" style="edgeStyle=orthogonalEdgeStyle;rounded=0;orthogonalLoop=1;jettySize=auto;html=1;exitX=0.5;exitY=1;exitDx=0;exitDy=0;entryX=0.5;entryY=0;entryDx=0;entryDy=0;fillColor=#d80073;strokeColor=#A50040;" parent="1" source="9xGHVuF1wRY1X2At3EIH-21" target="9xGHVuF1wRY1X2At3EIH-19" edge="1">
          <mxGeometry relative="1" as="geometry" />
        </mxCell>
        <mxCell id="9xGHVuF1wRY1X2At3EIH-21" value="180V STEP-UP&lt;br&gt;&lt;div&gt;CONVERTER&lt;/div&gt;" style="rounded=1;whiteSpace=wrap;html=1;" parent="1" vertex="1">
          <mxGeometry x="630" y="360" width="120" height="60" as="geometry" />
        </mxCell>
        <mxCell id="9xGHVuF1wRY1X2At3EIH-47" style="edgeStyle=orthogonalEdgeStyle;rounded=0;orthogonalLoop=1;jettySize=auto;html=1;fillColor=#0050ef;strokeColor=#001DBC;exitX=0.452;exitY=0.15;exitDx=0;exitDy=0;exitPerimeter=0;" parent="1" source="MNso9EO08R8TEz1W80nN-4" target="9xGHVuF1wRY1X2At3EIH-2" edge="1">
          <mxGeometry relative="1" as="geometry">
            <mxPoint x="190" y="220" as="sourcePoint" />
            <Array as="points">
              <mxPoint x="200" y="360" />
            </Array>
          </mxGeometry>
        </mxCell>
        <mxCell id="9xGHVuF1wRY1X2At3EIH-50" style="edgeStyle=orthogonalEdgeStyle;rounded=0;orthogonalLoop=1;jettySize=auto;html=1;fillColor=#0050ef;strokeColor=#001DBC;" parent="1" target="9xGHVuF1wRY1X2At3EIH-21" edge="1">
          <mxGeometry relative="1" as="geometry">
            <mxPoint x="40" y="220" as="sourcePoint" />
          </mxGeometry>
        </mxCell>
        <mxCell id="9xGHVuF1wRY1X2At3EIH-22" value="5V VOLTAGE&lt;div&gt;REGULATOR&lt;/div&gt;" style="rounded=1;whiteSpace=wrap;html=1;" parent="1" vertex="1">
          <mxGeometry x="40" y="250" width="120" height="60" as="geometry" />
        </mxCell>
        <mxCell id="9xGHVuF1wRY1X2At3EIH-26" value="" style="shape=flexArrow;endArrow=classic;html=1;rounded=0;entryX=0;entryY=0.5;entryDx=0;entryDy=0;exitX=1;exitY=0.5;exitDx=0;exitDy=0;fillColor=#f5f5f5;strokeColor=#666666;" parent="1" source="9xGHVuF1wRY1X2At3EIH-3" target="9xGHVuF1wRY1X2At3EIH-18" edge="1">
          <mxGeometry width="50" height="50" relative="1" as="geometry">
            <mxPoint x="420" y="520" as="sourcePoint" />
            <mxPoint x="470" y="470" as="targetPoint" />
            <Array as="points">
              <mxPoint x="420" y="480" />
            </Array>
          </mxGeometry>
        </mxCell>
        <mxCell id="9xGHVuF1wRY1X2At3EIH-27" value="2 GPIO" style="edgeLabel;html=1;align=center;verticalAlign=middle;resizable=0;points=[];" parent="9xGHVuF1wRY1X2At3EIH-26" vertex="1" connectable="0">
          <mxGeometry x="-0.1692" relative="1" as="geometry">
            <mxPoint y="-20" as="offset" />
          </mxGeometry>
        </mxCell>
        <mxCell id="9xGHVuF1wRY1X2At3EIH-34" value="RADIO SYNC&lt;div&gt;MODULE&lt;/div&gt;" style="rounded=1;whiteSpace=wrap;html=1;" parent="1" vertex="1">
          <mxGeometry x="280" y="310" width="120" height="60" as="geometry" />
        </mxCell>
        <mxCell id="9xGHVuF1wRY1X2At3EIH-35" value="" style="shape=flexArrow;endArrow=classic;html=1;rounded=0;entryX=0.75;entryY=0;entryDx=0;entryDy=0;exitX=0.5;exitY=1;exitDx=0;exitDy=0;fillColor=#f5f5f5;strokeColor=#666666;" parent="1" source="9xGHVuF1wRY1X2At3EIH-34" target="9xGHVuF1wRY1X2At3EIH-3" edge="1">
          <mxGeometry width="50" height="50" relative="1" as="geometry">
            <mxPoint x="220" y="290" as="sourcePoint" />
            <mxPoint x="270" y="240" as="targetPoint" />
          </mxGeometry>
        </mxCell>
        <mxCell id="9xGHVuF1wRY1X2At3EIH-36" value="GPIO" style="text;html=1;align=center;verticalAlign=middle;resizable=0;points=[];autosize=1;strokeColor=none;fillColor=none;" parent="1" vertex="1">
          <mxGeometry x="340" y="368" width="50" height="30" as="geometry" />
        </mxCell>
        <mxCell id="9xGHVuF1wRY1X2At3EIH-38" value="" style="shape=flexArrow;endArrow=classic;html=1;rounded=0;exitX=0.998;exitY=0.688;exitDx=0;exitDy=0;entryX=0;entryY=0.5;entryDx=0;entryDy=0;fillColor=#f5f5f5;strokeColor=#666666;exitPerimeter=0;" parent="1" source="9xGHVuF1wRY1X2At3EIH-3" target="9xGHVuF1wRY1X2At3EIH-20" edge="1">
          <mxGeometry width="50" height="50" relative="1" as="geometry">
            <mxPoint x="559.2893218813452" y="620" as="sourcePoint" />
            <mxPoint x="559.2893218813452" y="570" as="targetPoint" />
            <Array as="points">
              <mxPoint x="440" y="500" />
              <mxPoint x="440" y="570" />
            </Array>
          </mxGeometry>
        </mxCell>
        <mxCell id="9xGHVuF1wRY1X2At3EIH-39" value="GPIO" style="text;html=1;align=center;verticalAlign=middle;resizable=0;points=[];autosize=1;strokeColor=none;fillColor=none;" parent="1" vertex="1">
          <mxGeometry x="510" y="535" width="50" height="30" as="geometry" />
        </mxCell>
        <mxCell id="9xGHVuF1wRY1X2At3EIH-41" value="" style="endArrow=classic;html=1;rounded=0;entryX=0;entryY=0.5;entryDx=0;entryDy=0;exitX=1.002;exitY=0.162;exitDx=0;exitDy=0;exitPerimeter=0;" parent="1" source="9xGHVuF1wRY1X2At3EIH-3" target="9xGHVuF1wRY1X2At3EIH-21" edge="1">
          <mxGeometry width="50" height="50" relative="1" as="geometry">
            <mxPoint x="460" y="500" as="sourcePoint" />
            <mxPoint x="510" y="450" as="targetPoint" />
            <Array as="points">
              <mxPoint x="440" y="443" />
              <mxPoint x="440" y="390" />
            </Array>
          </mxGeometry>
        </mxCell>
        <mxCell id="9xGHVuF1wRY1X2At3EIH-42" value="ENABLE" style="edgeLabel;html=1;align=center;verticalAlign=middle;resizable=0;points=[];" parent="1" vertex="1" connectable="0">
          <mxGeometry x="490.00344827586207" y="455" as="geometry">
            <mxPoint x="103" y="-77" as="offset" />
          </mxGeometry>
        </mxCell>
        <mxCell id="9xGHVuF1wRY1X2At3EIH-43" value="" style="endArrow=classic;html=1;rounded=0;entryX=0.25;entryY=1;entryDx=0;entryDy=0;exitX=0.6;exitY=0.006;exitDx=0;exitDy=0;exitPerimeter=0;" parent="1" source="9xGHVuF1wRY1X2At3EIH-3" target="9xGHVuF1wRY1X2At3EIH-34" edge="1">
          <mxGeometry width="50" height="50" relative="1" as="geometry">
            <mxPoint x="400" y="560" as="sourcePoint" />
            <mxPoint x="450" y="510" as="targetPoint" />
            <Array as="points" />
          </mxGeometry>
        </mxCell>
        <mxCell id="9xGHVuF1wRY1X2At3EIH-44" value="&lt;span style=&quot;color: rgb(0, 0, 0); font-family: Helvetica; font-size: 11px; font-style: normal; font-variant-ligatures: normal; font-variant-caps: normal; font-weight: 400; letter-spacing: normal; orphans: 2; text-align: center; text-indent: 0px; text-transform: none; widows: 2; word-spacing: 0px; -webkit-text-stroke-width: 0px; white-space: nowrap; background-color: rgb(255, 255, 255); text-decoration-thickness: initial; text-decoration-style: initial; text-decoration-color: initial; display: inline !important; float: none;&quot;&gt;ENABLE&lt;/span&gt;" style="text;whiteSpace=wrap;html=1;" parent="1" vertex="1">
          <mxGeometry x="260" y="368" width="80" height="40" as="geometry" />
        </mxCell>
        <mxCell id="9xGHVuF1wRY1X2At3EIH-4" value="RTC&lt;br&gt;&lt;div&gt;&amp;amp;&lt;/div&gt;&lt;div&gt;EEPROM&lt;/div&gt;" style="rounded=1;whiteSpace=wrap;html=1;" parent="1" vertex="1">
          <mxGeometry x="320" y="720" width="120" height="60" as="geometry" />
        </mxCell>
        <mxCell id="9xGHVuF1wRY1X2At3EIH-71" style="edgeStyle=orthogonalEdgeStyle;rounded=0;orthogonalLoop=1;jettySize=auto;html=1;" parent="1" source="9xGHVuF1wRY1X2At3EIH-55" edge="1">
          <mxGeometry relative="1" as="geometry">
            <mxPoint x="190" y="470" as="targetPoint" />
            <Array as="points">
              <mxPoint x="190" y="470" />
            </Array>
          </mxGeometry>
        </mxCell>
        <mxCell id="9xGHVuF1wRY1X2At3EIH-55" value="KEYBOARD&lt;div&gt;&amp;amp;&lt;/div&gt;&lt;div&gt;TOUCHSENSOR&lt;/div&gt;" style="rounded=1;whiteSpace=wrap;html=1;" parent="1" vertex="1">
          <mxGeometry x="40" y="450" width="120" height="60" as="geometry" />
        </mxCell>
        <mxCell id="9xGHVuF1wRY1X2At3EIH-59" value="" style="shape=flexArrow;endArrow=classic;startArrow=classic;html=1;rounded=0;entryX=0.95;entryY=1;entryDx=0;entryDy=0;exitX=0.5;exitY=0;exitDx=0;exitDy=0;fillColor=#f5f5f5;strokeColor=#666666;entryPerimeter=0;" parent="1" source="9xGHVuF1wRY1X2At3EIH-4" target="9xGHVuF1wRY1X2At3EIH-3" edge="1">
          <mxGeometry width="100" height="100" relative="1" as="geometry">
            <mxPoint x="220" y="600" as="sourcePoint" />
            <mxPoint x="320" y="500" as="targetPoint" />
          </mxGeometry>
        </mxCell>
        <mxCell id="9xGHVuF1wRY1X2At3EIH-60" value="UART" style="text;html=1;align=center;verticalAlign=middle;resizable=0;points=[];autosize=1;strokeColor=none;fillColor=none;" parent="1" vertex="1">
          <mxGeometry x="170" y="660" width="60" height="30" as="geometry" />
        </mxCell>
        <mxCell id="9xGHVuF1wRY1X2At3EIH-74" value="LIGHT&lt;div&gt;SENSOR&lt;/div&gt;" style="rounded=1;whiteSpace=wrap;html=1;" parent="1" vertex="1">
          <mxGeometry x="40" y="540" width="120" height="60" as="geometry" />
        </mxCell>
        <mxCell id="9xGHVuF1wRY1X2At3EIH-95" style="edgeStyle=orthogonalEdgeStyle;rounded=0;orthogonalLoop=1;jettySize=auto;html=1;entryX=0.5;entryY=1;entryDx=0;entryDy=0;fillColor=#a20025;strokeColor=#6F0000;" parent="1" target="9xGHVuF1wRY1X2At3EIH-77" edge="1">
          <mxGeometry relative="1" as="geometry">
            <mxPoint x="460" y="810" as="sourcePoint" />
          </mxGeometry>
        </mxCell>
        <mxCell id="9xGHVuF1wRY1X2At3EIH-76" value="SPEAKER" style="rounded=1;whiteSpace=wrap;html=1;" parent="1" vertex="1">
          <mxGeometry x="630" y="630" width="120" height="60" as="geometry" />
        </mxCell>
        <mxCell id="9xGHVuF1wRY1X2At3EIH-96" style="edgeStyle=orthogonalEdgeStyle;rounded=0;orthogonalLoop=1;jettySize=auto;html=1;entryX=0;entryY=0.5;entryDx=0;entryDy=0;" parent="1" source="9xGHVuF1wRY1X2At3EIH-77" target="9xGHVuF1wRY1X2At3EIH-76" edge="1">
          <mxGeometry relative="1" as="geometry" />
        </mxCell>
        <mxCell id="9xGHVuF1wRY1X2At3EIH-77" value="I2S&lt;br&gt;AMPLIFIER&lt;div&gt;&lt;br/&gt;&lt;/div&gt;" style="rounded=1;whiteSpace=wrap;html=1;" parent="1" vertex="1">
          <mxGeometry x="490" y="630" width="120" height="60" as="geometry" />
        </mxCell>
        <mxCell id="9xGHVuF1wRY1X2At3EIH-78" value="MICROWAWE&lt;div&gt;PROXIMITY&amp;nbsp;&lt;/div&gt;&lt;div&gt;SENSOR&lt;/div&gt;" style="rounded=1;whiteSpace=wrap;html=1;" parent="1" vertex="1">
          <mxGeometry x="40" y="630" width="120" height="60" as="geometry" />
        </mxCell>
        <mxCell id="9xGHVuF1wRY1X2At3EIH-79" value="I2C" style="text;html=1;align=center;verticalAlign=middle;resizable=0;points=[];autosize=1;strokeColor=none;fillColor=none;" parent="1" vertex="1">
          <mxGeometry x="380" y="565" width="40" height="30" as="geometry" />
        </mxCell>
        <mxCell id="9xGHVuF1wRY1X2At3EIH-80" value="" style="endArrow=classic;html=1;rounded=0;entryDx=0;entryDy=0;" parent="1" edge="1">
          <mxGeometry width="50" height="50" relative="1" as="geometry">
            <mxPoint x="690" y="280" as="sourcePoint" />
            <mxPoint x="690" y="280" as="targetPoint" />
            <Array as="points" />
          </mxGeometry>
        </mxCell>
        <mxCell id="9xGHVuF1wRY1X2At3EIH-86" value="" style="shape=flexArrow;endArrow=classic;startArrow=classic;html=1;rounded=0;entryX=0.25;entryY=1;entryDx=0;entryDy=0;fillColor=#f5f5f5;strokeColor=#666666;" parent="1" edge="1">
          <mxGeometry width="100" height="100" relative="1" as="geometry">
            <mxPoint x="160" y="660" as="sourcePoint" />
            <mxPoint x="200" y="535" as="targetPoint" />
            <Array as="points">
              <mxPoint x="200" y="660" />
            </Array>
          </mxGeometry>
        </mxCell>
        <mxCell id="9xGHVuF1wRY1X2At3EIH-90" style="edgeStyle=orthogonalEdgeStyle;rounded=0;orthogonalLoop=1;jettySize=auto;html=1;entryX=0.5;entryY=1;entryDx=0;entryDy=0;fillColor=#a20025;strokeColor=#6F0000;" parent="1" source="9xGHVuF1wRY1X2At3EIH-88" target="9xGHVuF1wRY1X2At3EIH-4" edge="1">
          <mxGeometry relative="1" as="geometry" />
        </mxCell>
        <mxCell id="9xGHVuF1wRY1X2At3EIH-88" value="" style="shape=waypoint;sketch=0;fillStyle=solid;size=6;pointerEvents=1;points=[];fillColor=#a20025;resizable=0;rotatable=0;perimeter=centerPerimeter;snapToPoint=1;fontColor=#ffffff;strokeColor=#6F0000;" parent="1" vertex="1">
          <mxGeometry x="90" y="800" width="20" height="20" as="geometry" />
        </mxCell>
        <mxCell id="9xGHVuF1wRY1X2At3EIH-94" value="" style="endArrow=classic;html=1;rounded=0;entryDx=0;entryDy=0;" parent="1" edge="1">
          <mxGeometry width="50" height="50" relative="1" as="geometry">
            <mxPoint x="800" y="570" as="sourcePoint" />
            <mxPoint x="800" y="570" as="targetPoint" />
            <Array as="points" />
          </mxGeometry>
        </mxCell>
        <mxCell id="9xGHVuF1wRY1X2At3EIH-100" style="edgeStyle=orthogonalEdgeStyle;rounded=0;orthogonalLoop=1;jettySize=auto;html=1;entryX=0;entryY=0.75;entryDx=0;entryDy=0;" parent="1" source="9xGHVuF1wRY1X2At3EIH-74" target="9xGHVuF1wRY1X2At3EIH-3" edge="1">
          <mxGeometry relative="1" as="geometry">
            <Array as="points">
              <mxPoint x="170" y="570" />
              <mxPoint x="170" y="507" />
            </Array>
          </mxGeometry>
        </mxCell>
        <mxCell id="9xGHVuF1wRY1X2At3EIH-105" value="" style="shape=waypoint;sketch=0;fillStyle=solid;size=6;pointerEvents=1;points=[];fillColor=none;resizable=0;rotatable=0;perimeter=centerPerimeter;snapToPoint=1;" parent="1" vertex="1">
          <mxGeometry x="600" y="460" width="20" height="20" as="geometry" />
        </mxCell>
        <mxCell id="9xGHVuF1wRY1X2At3EIH-106" value="" style="shape=waypoint;sketch=0;fillStyle=solid;size=6;pointerEvents=1;points=[];fillColor=none;resizable=0;rotatable=0;perimeter=centerPerimeter;snapToPoint=1;" parent="1" vertex="1">
          <mxGeometry x="600" y="445" width="20" height="20" as="geometry" />
        </mxCell>
        <mxCell id="9xGHVuF1wRY1X2At3EIH-107" value="" style="shape=waypoint;sketch=0;fillStyle=solid;size=6;pointerEvents=1;points=[];fillColor=none;resizable=0;rotatable=0;perimeter=centerPerimeter;snapToPoint=1;" parent="1" vertex="1">
          <mxGeometry x="600" y="480" width="20" height="20" as="geometry" />
        </mxCell>
        <mxCell id="9xGHVuF1wRY1X2At3EIH-109" value="" style="shape=waypoint;sketch=0;fillStyle=solid;size=6;pointerEvents=1;points=[];fillColor=none;resizable=0;rotatable=0;perimeter=centerPerimeter;snapToPoint=1;" parent="1" vertex="1">
          <mxGeometry x="600" y="495" width="20" height="20" as="geometry" />
        </mxCell>
        <mxCell id="9xGHVuF1wRY1X2At3EIH-110" value="180V" style="text;html=1;align=center;verticalAlign=middle;resizable=0;points=[];autosize=1;strokeColor=none;fillColor=none;" parent="1" vertex="1">
          <mxGeometry x="685" y="418" width="50" height="30" as="geometry" />
        </mxCell>
        <mxCell id="9xGHVuF1wRY1X2At3EIH-112" value="I2S&lt;br&gt;DIGITAL&lt;br&gt;MICROPHONE" style="rounded=1;whiteSpace=wrap;html=1;" parent="1" vertex="1">
          <mxGeometry x="40" y="720" width="120" height="60" as="geometry" />
        </mxCell>
        <mxCell id="9xGHVuF1wRY1X2At3EIH-115" style="edgeStyle=orthogonalEdgeStyle;rounded=0;orthogonalLoop=1;jettySize=auto;html=1;fillColor=#a20025;strokeColor=#6F0000;" parent="1" source="9xGHVuF1wRY1X2At3EIH-114" edge="1">
          <mxGeometry relative="1" as="geometry">
            <Array as="points">
              <mxPoint x="20" y="810" />
              <mxPoint x="100" y="810" />
              <mxPoint x="100" y="780" />
            </Array>
            <mxPoint x="100" y="780" as="targetPoint" />
          </mxGeometry>
        </mxCell>
        <mxCell id="9xGHVuF1wRY1X2At3EIH-114" value="" style="shape=waypoint;sketch=0;fillStyle=solid;size=6;pointerEvents=1;points=[];fillColor=#a20025;resizable=0;rotatable=0;perimeter=centerPerimeter;snapToPoint=1;fontColor=#ffffff;strokeColor=#6F0000;" parent="1" vertex="1">
          <mxGeometry x="10" y="650" width="20" height="20" as="geometry" />
        </mxCell>
        <mxCell id="9xGHVuF1wRY1X2At3EIH-122" value="" style="shape=flexArrow;endArrow=classic;startArrow=classic;html=1;rounded=0;dashed=1;entryX=0.13;entryY=0.77;entryDx=0;entryDy=0;entryPerimeter=0;" parent="1" target="9xGHVuF1wRY1X2At3EIH-124" edge="1">
          <mxGeometry width="100" height="100" relative="1" as="geometry">
            <mxPoint x="380" y="425" as="sourcePoint" />
            <mxPoint x="380.34000000000003" y="200" as="targetPoint" />
          </mxGeometry>
        </mxCell>
        <mxCell id="9xGHVuF1wRY1X2At3EIH-125" value="BT" style="edgeLabel;html=1;align=center;verticalAlign=middle;resizable=0;points=[];" parent="9xGHVuF1wRY1X2At3EIH-122" vertex="1" connectable="0">
          <mxGeometry x="-0.1265" y="-2" relative="1" as="geometry">
            <mxPoint x="4" y="-6" as="offset" />
          </mxGeometry>
        </mxCell>
        <mxCell id="9xGHVuF1wRY1X2At3EIH-124" value="APPLICATION" style="ellipse;shape=cloud;whiteSpace=wrap;html=1;fillColor=#d5e8d4;strokeColor=#82b366;gradientColor=#97d077;" parent="1" vertex="1">
          <mxGeometry x="430" y="290" width="120" height="80" as="geometry" />
        </mxCell>
        <mxCell id="2VZE7Uvqs4Fv_8AML4yk-3" value="5V" style="text;html=1;align=center;verticalAlign=middle;resizable=0;points=[];autosize=1;strokeColor=none;fillColor=none;" parent="1" vertex="1">
          <mxGeometry x="160" y="260" width="40" height="30" as="geometry" />
        </mxCell>
        <mxCell id="2VZE7Uvqs4Fv_8AML4yk-8" value="" style="endArrow=classic;html=1;rounded=0;entryX=1;entryY=0.5;entryDx=0;entryDy=0;fillColor=#60a917;strokeColor=#2D7600;" parent="1" target="9xGHVuF1wRY1X2At3EIH-20" edge="1">
          <mxGeometry width="50" height="50" relative="1" as="geometry">
            <mxPoint x="240" y="350" as="sourcePoint" />
            <mxPoint x="750" y="560" as="targetPoint" />
            <Array as="points">
              <mxPoint x="240" y="280" />
              <mxPoint x="480" y="280" />
              <mxPoint x="780" y="280" />
              <mxPoint x="780" y="570" />
            </Array>
          </mxGeometry>
        </mxCell>
        <mxCell id="2VZE7Uvqs4Fv_8AML4yk-10" value="" style="endArrow=classic;html=1;rounded=0;exitX=1;exitY=0.733;exitDx=0;exitDy=0;exitPerimeter=0;fillColor=#a20025;strokeColor=#6F0000;" parent="1" edge="1">
          <mxGeometry width="50" height="50" relative="1" as="geometry">
            <mxPoint x="220" y="409.9900000000001" as="sourcePoint" />
            <mxPoint x="280" y="338" as="targetPoint" />
            <Array as="points">
              <mxPoint x="220" y="338" />
            </Array>
          </mxGeometry>
        </mxCell>
        <mxCell id="4Ek7g-QmdzCOCeFYZru6-18" value="" style="edgeStyle=orthogonalEdgeStyle;rounded=0;orthogonalLoop=1;jettySize=auto;html=1;fillColor=#a20025;strokeColor=#6F0000;" parent="1" source="2VZE7Uvqs4Fv_8AML4yk-12" target="9xGHVuF1wRY1X2At3EIH-3" edge="1">
          <mxGeometry relative="1" as="geometry">
            <Array as="points">
              <mxPoint x="220" y="410" />
              <mxPoint x="220" y="410" />
            </Array>
          </mxGeometry>
        </mxCell>
        <mxCell id="2VZE7Uvqs4Fv_8AML4yk-12" value="" style="shape=waypoint;sketch=0;fillStyle=solid;size=6;pointerEvents=1;points=[];fillColor=#a20025;resizable=0;rotatable=0;perimeter=centerPerimeter;snapToPoint=1;fontColor=#ffffff;strokeColor=#6F0000;" parent="1" vertex="1">
          <mxGeometry x="210" y="400" width="20" height="20" as="geometry" />
        </mxCell>
        <mxCell id="2VZE7Uvqs4Fv_8AML4yk-15" value="3V3" style="text;html=1;align=center;verticalAlign=middle;resizable=0;points=[];autosize=1;strokeColor=none;fillColor=none;" parent="1" vertex="1">
          <mxGeometry x="160" y="388" width="40" height="30" as="geometry" />
        </mxCell>
        <mxCell id="2VZE7Uvqs4Fv_8AML4yk-16" value="" style="shape=flexArrow;endArrow=classic;html=1;rounded=0;entryX=0.334;entryY=1.007;entryDx=0;entryDy=0;entryPerimeter=0;fillColor=#f5f5f5;strokeColor=#666666;" parent="1" edge="1">
          <mxGeometry width="50" height="50" relative="1" as="geometry">
            <mxPoint x="160" y="750" as="sourcePoint" />
            <mxPoint x="236.79999999999995" y="535.77" as="targetPoint" />
            <Array as="points">
              <mxPoint x="240" y="750" />
            </Array>
          </mxGeometry>
        </mxCell>
        <mxCell id="2VZE7Uvqs4Fv_8AML4yk-17" value="I2S" style="text;html=1;align=center;verticalAlign=middle;resizable=0;points=[];autosize=1;strokeColor=none;fillColor=none;" parent="1" vertex="1">
          <mxGeometry x="170" y="720" width="40" height="30" as="geometry" />
        </mxCell>
        <mxCell id="2VZE7Uvqs4Fv_8AML4yk-18" value="" style="endArrow=classic;html=1;rounded=0;entryX=0.5;entryY=1;entryDx=0;entryDy=0;fillColor=#a0522d;strokeColor=#6D1F00;" parent="1" target="9xGHVuF1wRY1X2At3EIH-18" edge="1">
          <mxGeometry width="50" height="50" relative="1" as="geometry">
            <mxPoint x="340" y="810" as="sourcePoint" />
            <mxPoint x="400" y="500" as="targetPoint" />
            <Array as="points">
              <mxPoint x="460" y="810" />
              <mxPoint x="460" y="600" />
              <mxPoint x="460" y="530" />
              <mxPoint x="530" y="530" />
            </Array>
          </mxGeometry>
        </mxCell>
        <mxCell id="4Ek7g-QmdzCOCeFYZru6-1" value="" style="shape=flexArrow;endArrow=classic;html=1;rounded=0;entryX=0;entryY=0.5;entryDx=0;entryDy=0;exitX=0.994;exitY=0.863;exitDx=0;exitDy=0;exitPerimeter=0;fillColor=#f5f5f5;strokeColor=#666666;" parent="1" source="9xGHVuF1wRY1X2At3EIH-3" target="9xGHVuF1wRY1X2At3EIH-77" edge="1">
          <mxGeometry width="50" height="50" relative="1" as="geometry">
            <mxPoint x="370" y="536" as="sourcePoint" />
            <mxPoint x="560" y="680" as="targetPoint" />
            <Array as="points">
              <mxPoint x="410" y="520" />
              <mxPoint x="420" y="520" />
              <mxPoint x="420" y="580" />
              <mxPoint x="420" y="660" />
            </Array>
          </mxGeometry>
        </mxCell>
        <mxCell id="4Ek7g-QmdzCOCeFYZru6-2" value="I2S" style="text;html=1;align=center;verticalAlign=middle;resizable=0;points=[];autosize=1;strokeColor=none;fillColor=none;" parent="1" vertex="1">
          <mxGeometry x="420" y="590" width="40" height="30" as="geometry" />
        </mxCell>
        <mxCell id="4Ek7g-QmdzCOCeFYZru6-3" value="SD &lt;br&gt;MEMORY&lt;br&gt;CARD" style="rounded=1;whiteSpace=wrap;html=1;" parent="1" vertex="1">
          <mxGeometry x="250" y="620" width="120" height="60" as="geometry" />
        </mxCell>
        <mxCell id="4Ek7g-QmdzCOCeFYZru6-4" value="" style="shape=flexArrow;endArrow=classic;startArrow=classic;html=1;rounded=0;entryX=0.5;entryY=0;entryDx=0;entryDy=0;exitX=0.604;exitY=0.998;exitDx=0;exitDy=0;exitPerimeter=0;fillColor=#f5f5f5;strokeColor=#666666;" parent="1" source="9xGHVuF1wRY1X2At3EIH-3" target="4Ek7g-QmdzCOCeFYZru6-3" edge="1">
          <mxGeometry width="100" height="100" relative="1" as="geometry">
            <mxPoint x="260" y="700" as="sourcePoint" />
            <mxPoint x="360" y="600" as="targetPoint" />
          </mxGeometry>
        </mxCell>
        <mxCell id="4Ek7g-QmdzCOCeFYZru6-7" value="SDIO" style="text;html=1;align=center;verticalAlign=middle;resizable=0;points=[];autosize=1;strokeColor=none;fillColor=none;" parent="1" vertex="1">
          <mxGeometry x="315" y="565" width="50" height="30" as="geometry" />
        </mxCell>
        <mxCell id="4Ek7g-QmdzCOCeFYZru6-9" value="" style="endArrow=classic;html=1;rounded=0;entryX=0.25;entryY=1;entryDx=0;entryDy=0;fillColor=#a20025;strokeColor=#6F0000;" parent="1" target="4Ek7g-QmdzCOCeFYZru6-3" edge="1">
          <mxGeometry width="50" height="50" relative="1" as="geometry">
            <mxPoint x="280" y="810" as="sourcePoint" />
            <mxPoint x="400" y="570" as="targetPoint" />
          </mxGeometry>
        </mxCell>
        <mxCell id="4Ek7g-QmdzCOCeFYZru6-10" value="" style="shape=waypoint;sketch=0;fillStyle=solid;size=6;pointerEvents=1;points=[];fillColor=#a20025;resizable=0;rotatable=0;perimeter=centerPerimeter;snapToPoint=1;fontColor=#ffffff;strokeColor=#6F0000;" parent="1" vertex="1">
          <mxGeometry x="270" y="800" width="20" height="20" as="geometry" />
        </mxCell>
        <mxCell id="4Ek7g-QmdzCOCeFYZru6-11" value="" style="shape=waypoint;sketch=0;fillStyle=solid;size=6;pointerEvents=1;points=[];fillColor=#a20025;resizable=0;rotatable=0;perimeter=centerPerimeter;snapToPoint=1;fontColor=#ffffff;strokeColor=#6F0000;" parent="1" vertex="1">
          <mxGeometry x="370" y="800" width="20" height="20" as="geometry" />
        </mxCell>
        <mxCell id="4Ek7g-QmdzCOCeFYZru6-13" value="" style="shape=waypoint;sketch=0;fillStyle=solid;size=6;pointerEvents=1;points=[];fillColor=#a20025;resizable=0;rotatable=0;perimeter=centerPerimeter;snapToPoint=1;fontColor=#ffffff;strokeColor=#6F0000;" parent="1" vertex="1">
          <mxGeometry x="450" y="800" width="20" height="20" as="geometry" />
        </mxCell>
        <mxCell id="4Ek7g-QmdzCOCeFYZru6-15" value="" style="shape=waypoint;sketch=0;fillStyle=solid;size=6;pointerEvents=1;points=[];fillColor=#60a917;resizable=0;rotatable=0;perimeter=centerPerimeter;snapToPoint=1;fontColor=#ffffff;strokeColor=#2D7600;" parent="1" vertex="1">
          <mxGeometry x="230" y="270" width="20" height="20" as="geometry" />
        </mxCell>
        <mxCell id="4Ek7g-QmdzCOCeFYZru6-17" value="" style="endArrow=none;html=1;rounded=0;entryX=0.5;entryY=1;entryDx=0;entryDy=0;fillColor=#a20025;strokeColor=#6F0000;" parent="1" source="4Ek7g-QmdzCOCeFYZru6-20" target="9xGHVuF1wRY1X2At3EIH-2" edge="1">
          <mxGeometry width="50" height="50" relative="1" as="geometry">
            <mxPoint x="100" y="410" as="sourcePoint" />
            <mxPoint x="180" y="390" as="targetPoint" />
          </mxGeometry>
        </mxCell>
        <mxCell id="4Ek7g-QmdzCOCeFYZru6-23" value="" style="endArrow=none;html=1;rounded=0;entryDx=0;entryDy=0;" parent="1" target="4Ek7g-QmdzCOCeFYZru6-20" edge="1">
          <mxGeometry width="50" height="50" relative="1" as="geometry">
            <mxPoint x="100" y="410" as="sourcePoint" />
            <mxPoint x="100" y="390" as="targetPoint" />
          </mxGeometry>
        </mxCell>
        <mxCell id="4Ek7g-QmdzCOCeFYZru6-20" value="" style="shape=waypoint;sketch=0;fillStyle=solid;size=6;pointerEvents=1;points=[];fillColor=#a20025;resizable=0;rotatable=0;perimeter=centerPerimeter;snapToPoint=1;fontColor=#ffffff;strokeColor=#6F0000;" parent="1" vertex="1">
          <mxGeometry x="90" y="400" width="20" height="20" as="geometry" />
        </mxCell>
        <mxCell id="4Ek7g-QmdzCOCeFYZru6-25" value="" style="endArrow=none;html=1;rounded=0;entryX=0.5;entryY=0;entryDx=0;entryDy=0;fillColor=#0050ef;strokeColor=#001DBC;" parent="1" target="9xGHVuF1wRY1X2At3EIH-22" edge="1">
          <mxGeometry width="50" height="50" relative="1" as="geometry">
            <mxPoint x="100" y="220" as="sourcePoint" />
            <mxPoint x="60" y="400" as="targetPoint" />
          </mxGeometry>
        </mxCell>
        <mxCell id="4Ek7g-QmdzCOCeFYZru6-26" value="12V" style="text;html=1;align=center;verticalAlign=middle;resizable=0;points=[];autosize=1;strokeColor=none;fillColor=none;" parent="1" vertex="1">
          <mxGeometry x="30" y="200" width="40" height="30" as="geometry" />
        </mxCell>
        <mxCell id="4Ek7g-QmdzCOCeFYZru6-27" value="" style="shape=waypoint;sketch=0;fillStyle=solid;size=6;pointerEvents=1;points=[];fillColor=#0050ef;resizable=0;rotatable=0;perimeter=centerPerimeter;snapToPoint=1;fontColor=#ffffff;strokeColor=#001DBC;" parent="1" vertex="1">
          <mxGeometry x="90" y="210" width="20" height="20" as="geometry" />
        </mxCell>
        <mxCell id="MNso9EO08R8TEz1W80nN-4" value="" style="shape=waypoint;sketch=0;fillStyle=solid;size=6;pointerEvents=1;points=[];fillColor=#0050ef;resizable=0;rotatable=0;perimeter=centerPerimeter;snapToPoint=1;fontColor=#ffffff;strokeColor=#001DBC;" parent="1" vertex="1">
          <mxGeometry x="190" y="210" width="20" height="20" as="geometry" />
        </mxCell>
      </root>
    </mxGraphModel>
  </diagram>
</mxfile>
